
<svg width="276px" height="76px" viewBox="0 0 276 76" version="1.1" xmlns="http://www.w3.org/2000/svg" xmlns:xlink="http://www.w3.org/1999/xlink">
    <g id="Page-1" stroke="none" stroke-width="1" fill="none" fill-rule="evenodd">
        <g id="metaverse" transform="translate(-932.000000, -742.000000)">
            <g id="Group-2" transform="translate(932.000000, 742.000000)">
                <rect id="Rectangle-Copy" fill="#F3F3F3" x="0" y="0" width="276" height="76" rx="8"></rect>
                <path d="M53.532,48.216 C53.82,48.216 54.54,48.108 55.08,47.928 C55.0455652,47.2393043 54.9781928,46.1224197 54.9723994,43.8527183 L54.972,26.76 L62.388,26.76 C62.748,26.58 63.18,25.752 63.108,25.536 L50.9096263,25.5350073 C47.0827934,25.5260145 46.5643636,25.4566364 46.296,25.356 C46.08,25.536 45.72,26.004 45.54,26.364 C45.36,26.688 45.504,26.76 45.936,26.76 L53.172,26.76 L53.172,47.568 C53.172,48.108 53.28,48.216 53.532,48.216 Z M65.52,48.216 C65.7,48.216 66.312,48.18 66.816,48.108 C67.176,48.072 67.284,47.856 67.284,47.352 L67.284,38.604 L67.284,38.604 C67.284,37.812 67.464,37.164 67.788,36.48 C68.688,34.428 70.02,33.528 71.028,33.528 C71.352,33.528 71.892,33.636 72.252,33.852 C72.648,33.672 73.008,33.096 73.008,32.7 C73.008,32.628 72.936,32.448 72.756,32.34 C72.468,32.124 71.928,31.944 71.352,31.944 C69.984,31.944 68.328,33.168 67.176,35.58 C67.176,33.24 66.672,31.944 65.952,31.944 C65.7,31.944 64.944,32.52 64.8,32.736 L64.8,32.844 C65.448,33.204 65.628,33.888 65.628,35.544 L65.628,41.484 L65.6279964,41.8647691 L65.6279964,41.8647691 L65.6272169,43.5932247 C65.6239542,46.2343143 65.6070968,47.6934194 65.52,48.216 Z M75.96,55.92 C76.464,55.92 80.244,50.376 82.98,44.076 C85.14,39.072 86.544,34.248 86.796,33.276 C86.94,32.736 86.94,32.376 86.76,32.196 C86.508,31.944 86.04,31.908 85.644,31.944 C84.888,35.22 82.332,42.384 80.676,45.804 C80.2480755,44.7199245 79.4527818,42.5111342 78.6148327,40.1831222 L78.2540468,39.1810349 C77.0892004,35.9474589 75.9314717,32.7604528 75.636,32.268 C75.492,32.052 75.312,31.944 75.096,31.944 C74.736,31.944 74.124,32.304 73.8,32.592 C75.708,36.552 78.552,44.544 78.984,45.732 C79.236,46.38 79.632,47.28 79.776,47.46 C78.012,50.88 75.852,53.904 74.7,55.416 L74.7,55.488 C75.024,55.776 75.528,55.92 75.96,55.92 Z M106.848,48.072 C107.676,47.928 108,47.316 108.072,46.812 L108.036,46.74 C107.053412,46.8755294 104.89092,46.915391 103.169251,46.9196116 L102.852,46.92 C101.16,46.92 98.892,46.848 98.208,46.596 L98.208,27.192 C98.208,25.5 98.064,25.392 97.848,25.392 C97.452,25.392 96.768,25.572 96.3,25.68 C96.3651429,26.2988571 96.4008163,27.5660408 96.4070204,29.5882021 L96.408,47.28 L96.768,47.82 C97.734,48.027 100.088625,48.2009375 102.722904,48.2150729 L103.068,48.216 C105.336,48.216 106.416,48.144 106.848,48.072 Z M111.456,27.84 C112.212,27.84 112.608,27.192 112.608,26.58 C112.608,25.932 112.176,25.356 111.528,25.356 L111.492,25.356 C110.88,25.356 110.304,25.824 110.304,26.616 C110.304,27.228 110.628,27.84 111.456,27.84 Z M110.556,48.216 C111.168,48.18 111.6,48.108 111.888,48.036 C112.176,47.964 112.32,47.784 112.32,47.136 L112.32,34.356 C112.32,32.34 112.176,32.16 111.96,32.16 C111.636,32.16 110.916,32.268 110.52,32.448 C110.5884,33.2346 110.6568,34.24863 110.663469,36.230862 L110.664,42.6 C110.664,44.688 110.592,46.776 110.556,48.216 Z M121.428,48.432 C121.824,48.36 122.076,48.288 122.364,48.108 C122.652,47.964 122.832,47.532 123.156,46.776 C125.1432,42.00672 126.490522,38.608608 127.842718,35.2641239 L128.196,34.392 L128.196,34.392 C128.916,32.664 128.88,32.484 128.448,32.268 C128.088,32.052 127.836,31.944 127.584,31.944 C126.324,35.436 123.156,43.248 122.112,45.84 C120.6,41.412 117.828,34.068 117.216,32.628 C117,32.088 116.82,31.944 116.676,31.944 L116.64,31.944 C116.28,31.944 115.596,32.376 115.308,32.628 C115.596,33.312 116.1,34.32 117.648,38.424 C120.312,45.624 121.104,47.496 121.428,48.432 Z M137.52,48.432 C139.032,48.432 140.544,47.964 141.156,47.532 C141.696,47.172 141.84,46.704 141.948,46.128 L141.876,46.092 C141.228,46.416 139.428,46.92 137.916,46.92 C134.064,46.92 131.904,44.004 132.012,39.72 C133.129241,39.7572414 134.259325,39.7730797 135.303353,39.7763713 L136.217073,39.7761853 C137.790663,39.7706825 139.068,39.7398621 139.644,39.72 C140.652,39.684 142.632,39.396 142.776,38.676 C142.848,38.352 142.848,37.848 142.848,37.596 C142.74,34.788 140.976,31.944 137.34,31.944 C132.84,31.944 130.248,35.796 130.248,40.548 C130.248,45.336 132.804,48.432 137.52,48.432 Z M136.348992,38.455104 L135.207813,38.4554869 C134.224163,38.4533878 133.169143,38.4445714 132.12,38.424 C132.696,34.932 134.712,33.096 136.944,33.096 L136.98,33.096 C139.68,33.096 141.12,35.148 141.048,37.668 C141.048,38.136 140.652,38.388 140.04,38.424 C139.7376,38.424 138.2688,38.44992 136.348992,38.455104 L136.348992,38.455104 Z M158.688,48.36 C166.104,48.36 171.54,44.112 171.54,36.372 C171.54,31.98 169.92,25.32 158.436,25.32 C156.636,25.32 153.108,25.68 152.784,25.86 C152.840348,26.7615652 152.852597,27.3985406 152.85526,28.8062776 L152.855994,29.8703177 C152.856,29.970397 152.856,30.0735652 152.856,30.18 L152.856,47.496 C154.548,48 156.42,48.36 158.688,48.36 Z M158.868,47.1 C157.644,47.1 155.556,46.956 154.656,46.668 L154.656,26.94 C155.7,26.76 156.96,26.688 158.328,26.688 C166.392,26.688 169.524,30.9 169.524,36.552 C169.524,44.148 164.664,47.1 158.868,47.1 Z M181.116,48.432 C182.628,48.432 184.14,47.964 184.752,47.532 C185.292,47.172 185.436,46.704 185.544,46.128 L185.472,46.092 C184.824,46.416 183.024,46.92 181.512,46.92 C177.66,46.92 175.5,44.004 175.608,39.72 C176.725241,39.7572414 177.855325,39.7730797 178.899353,39.7763713 L179.813073,39.7761853 C181.386663,39.7706825 182.664,39.7398621 183.24,39.72 C184.248,39.684 186.228,39.396 186.372,38.676 C186.444,38.352 186.444,37.848 186.444,37.596 C186.336,34.788 184.572,31.944 180.936,31.944 C176.436,31.944 173.844,35.796 173.844,40.548 C173.844,45.336 176.4,48.432 181.116,48.432 Z M179.944992,38.455104 L178.803813,38.4554869 C177.820163,38.4533878 176.765143,38.4445714 175.716,38.424 C176.292,34.932 178.308,33.096 180.54,33.096 L180.576,33.096 C183.276,33.096 184.716,35.148 184.644,37.668 C184.644,38.136 184.248,38.388 183.636,38.424 C183.3336,38.424 181.8648,38.44992 179.944992,38.455104 L179.944992,38.455104 Z M191.016,48.144 C191.34,48.108 191.592,48.036 191.592,47.46 L191.592,36.372 C192.42,35.184 194.256,33.42 196.416,33.42 C198.612,33.42 199.872,34.896 199.872,38.46 L199.872,41.484 C199.872,45.48 199.836,47.568 199.764,48.216 L199.920148,48.2152099 C200.143111,48.2124444 200.504,48.2 200.952,48.144 C201.456,48.072 201.528,47.964 201.528,47.172 L201.492,36.12 C202.356,35.004 203.724,33.42 206.1,33.42 C208.368,33.42 209.808,34.896 209.808,38.64 L209.808,47.784 C209.808,48.072 209.88,48.216 210.06,48.216 C210.42,48.216 210.96,48.072 211.608,47.928 C211.53913,47.4114783 211.470261,46.4338299 211.464402,44.3649439 L211.464,38.208 C211.464,34.104 209.808,31.944 206.568,31.944 C204.3,31.944 202.5,33.276 201.096,34.932 C200.376,32.916 198.972,31.944 196.956,31.944 C194.796,31.944 192.924,33.312 191.556,34.896 C191.556,33.312 191.304,31.944 190.692,31.944 C190.512,31.944 189.648,32.412 189.468,32.592 L189.468,32.664 C189.684,32.88 189.936,33.636 189.936,35.22 L189.936,41.484 C189.936,45.48 189.9,47.568 189.828,48.216 L189.996593,48.2152099 C190.244444,48.2124444 190.652,48.2 191.016,48.144 Z M222.48,48.432 C227.232,48.432 230.148,44.652 230.148,40.008 C230.148,35.436 227.664,31.944 222.876,31.944 L222.84,31.944 C218.052,31.944 214.992,35.76 214.992,40.476 C214.992,43.824 216.684,48.432 222.48,48.432 Z M222.732,47.244 C219.528,47.244 216.864,44.688 216.864,40.044 C216.864,35.364 219.744,33.132 222.444,33.132 L222.48,33.132 C226.44,33.132 228.276,36.516 228.276,40.188 C228.276,45.804 224.892,47.244 222.732,47.244 Z" id="TryLiveDemo" fill="#000000" fill-rule="nonzero"></path>
            </g>
        </g>
    </g>
</svg>