
<svg width="441px" height="76px" viewBox="0 0 441 76" version="1.1" xmlns="http://www.w3.org/2000/svg" xmlns:xlink="http://www.w3.org/1999/xlink">
    <g id="Page-1" stroke="none" stroke-width="1" fill="none" fill-rule="evenodd">
        <g id="metaverse" transform="translate(-467.000000, -744.000000)">
            <g id="Group" transform="translate(467.000000, 744.000000)">
                <rect id="Rectangle" fill="#1CF145" x="0" y="0" width="441" height="76" rx="9"></rect>
                <path d="M49.424,48.36 C56.84,48.36 62.276,44.112 62.276,36.372 C62.276,31.98 60.656,25.32 49.172,25.32 C47.372,25.32 43.844,25.68 43.52,25.86 C43.5763478,26.7615652 43.5885974,27.3985406 43.5912603,28.8062776 L43.592,47.496 C45.284,48 47.156,48.36 49.424,48.36 Z M49.604,47.1 C48.38,47.1 46.292,46.956 45.392,46.668 L45.392,26.94 C46.436,26.76 47.696,26.688 49.064,26.688 C57.128,26.688 60.26,30.9 60.26,36.552 C60.26,44.148 55.4,47.1 49.604,47.1 Z M72.068,48.432 C76.82,48.432 79.736,44.652 79.736,40.008 C79.736,35.436 77.252,31.944 72.464,31.944 L72.428,31.944 C67.64,31.944 64.58,35.76 64.58,40.476 C64.58,43.824 66.272,48.432 72.068,48.432 Z M72.32,47.244 C69.116,47.244 66.452,44.688 66.452,40.044 C66.452,35.364 69.332,33.132 72.032,33.132 L72.068,33.132 C76.028,33.132 77.864,36.516 77.864,40.188 C77.864,45.804 74.48,47.244 72.32,47.244 Z M96.584,48.432 C96.836,48.36 97.016,48.252 97.232,48.144 C97.592,47.964 97.808,47.676 98.06,46.992 C100.112,41.7 101.192,38.784 102.812,34.536 C103.424,32.988 103.388,32.628 103.172,32.376 C102.848,32.124 102.452,31.944 102.128,31.944 L102.086911,32.0553025 C102.082366,32.0675353 102.077821,32.0797425 102.073269,32.0919429 L102.003743,32.2768257 C101.994199,32.3020438 101.984502,32.3276156 101.974601,32.3536932 L101.944239,32.4335953 C101.56615,33.4278999 100.848744,35.2986977 97.304,45.444 C95.396,39.396 94.46,36.696 93.632,33.96 C93.308,32.844 93.092,32.376 92.804,32.376 C92.372,32.376 91.904,32.628 91.652,32.844 C91.688,33.024 91.832,33.456 91.904,33.708 C90.32,38.46 89.204,41.52 87.764,45.66 C86.216,40.98 84.596,36.336 83.192,32.412 C83.084,32.124 82.94,31.944 82.724,31.944 L82.688,31.944 C82.472,31.944 81.86,32.196 81.428,32.664 C81.716,33.312 82.544,35.508 83.876,39.18 C84.1442581,39.936 84.4253652,40.7507388 84.7060579,41.5753069 L84.9462408,42.283346 C85.8242706,44.8799501 86.6607742,47.4356129 87.044,48.432 C87.404,48.36 87.548,48.252 87.836,48.108 C88.088,47.964 88.304,47.676 88.448,47.28 C88.844,46.272 91.904,37.524 92.552,35.508 C93.1651613,37.4310968 93.6380687,38.9010656 94.0918347,40.3292714 L94.3176833,41.0417985 C94.9562456,43.0615567 95.5969032,45.1350968 96.584,48.432 Z M107.24,48.144 C107.708,48.108 107.888,48.036 107.888,47.244 L107.888,36.516 C108.644,35.184 110.444,33.42 112.82,33.42 C115.196,33.42 116.708,34.968 116.672,38.496 L116.6,47.856 C116.6,48.072 116.672,48.216 116.924,48.216 C117.284,48.216 117.752,48.072 118.436,47.928 C118.370261,47.4349565 118.334533,46.5217543 118.328817,44.6129583 L118.328,38.424 C118.328,34.32 116.852,31.944 113.288,31.944 C111.164,31.944 109.184,33.312 107.852,34.896 C107.852,33.636 107.672,31.944 106.988,31.944 C106.736,31.944 105.944,32.412 105.764,32.628 L105.764,32.7 C106.052,33.024 106.232,33.78 106.232,35.22 L106.232,41.484 C106.232,45.48 106.196,47.568 106.124,48.216 C106.412,48.216 106.844,48.216 107.24,48.144 Z M123.656,48.216 C123.98,48.216 124.484,48.108 125.024,47.928 C124.9565,47.01675 124.889,45.2512031 124.880826,43.5805781 L124.88,25.86 C124.88,23.7 124.772,23.52 124.556,23.52 C124.268,23.52 123.8,23.556 123.08,23.844 C123.148,24.524 123.216,25.7177778 123.223346,27.6376235 L123.224,47.748 C123.224,48.108 123.368,48.216 123.656,48.216 Z M135.896,48.432 C140.648,48.432 143.564,44.652 143.564,40.008 C143.564,35.436 141.08,31.944 136.292,31.944 L136.256,31.944 C131.468,31.944 128.408,35.76 128.408,40.476 C128.408,43.824 130.1,48.432 135.896,48.432 Z M136.148,47.244 C132.944,47.244 130.28,44.688 130.28,40.044 C130.28,35.364 133.16,33.132 135.86,33.132 L135.896,33.132 C139.856,33.132 141.692,36.516 141.692,40.188 C141.692,45.804 138.308,47.244 136.148,47.244 Z M156.416,48.432 C157.064,48.432 157.928,48.144 157.856,47.028 L157.82,46.992 C157.568,47.1 157.352,47.136 157.136,47.136 C156.416,47.136 156.056,46.668 156.02,45.696 C155.984,43.644 156.092,39.396 156.092,37.776 C156.092,34.896 155.264,31.944 151.268,31.944 C148.928,31.944 146.84,33.42 145.94,34.392 C145.94,34.932 146.372,35.436 146.84,35.256 C148.136,34.212 149.468,33.456 151.016,33.456 C153.5,33.456 154.472,35.364 154.436,37.272 L154.4,39 C153.896,39.108 153.212,39.252 152.636,39.396 C151.304,39.756 145.58,40.8 145.58,44.832 C145.58,46.56 146.876,48.432 149.396,48.432 C151.448,48.432 153.176,47.352 154.364,45.84 C154.328,47.1 154.94,48.432 156.416,48.432 Z M150.116,46.992 C148.676,46.992 147.452,45.948 147.452,44.508 L147.452,44.472 C147.452,41.628 151.664,40.728 154.4,40.188 L154.364,43.428 C154.364,44.04 154.292,44.328 154.148,44.58 C153.5,45.552 152.24,46.992 150.116,46.992 Z M173.948,48.432 C174.38,48.432 174.812,48 174.992,47.424 L174.992,47.316 C173.804,47.172 173.552,46.668 173.552,44.724 L173.552,25.86 C173.552,23.7 173.408,23.52 173.156,23.52 C172.832,23.52 172.328,23.664 171.788,23.844 C171.821882,24.5216471 171.887654,25.2949619 171.895275,26.8242402 L171.896,32.628 C171.795826,32.5966957 171.690208,32.5555917 171.572897,32.5090435 L171.387378,32.4356824 C170.832469,32.2193422 170.009913,31.944 168.44,31.944 C163.364,31.944 159.764,35.58 159.764,40.584 C159.764,46.02 163.256,48.432 166.568,48.432 C168.44,48.432 170.42,47.568 172.04,46.164 C172.112,47.388 172.688,48.432 173.948,48.432 Z M167.252,46.884 C164.228,46.884 161.636,44.436 161.636,40.62 C161.636,35.256 165.38,33.204 168.332,33.204 C169.952,33.204 171.212,33.564 171.896,33.996 L171.896,45.012 C170.78,46.128 168.908,46.884 167.252,46.884 Z M195.656,48.54 C198.032,48.54 200.3,47.928 201.02,47.424 C201.488,47.1 201.884,46.344 201.884,45.876 L201.848,45.84 C200.84,46.38 198.392,47.064 196.232,47.064 C189.428,47.064 185.9,42.816 185.9,36.732 C185.9,29.964 190.58,26.4 195.764,26.4 C197.96,26.4 199.868,26.94 201.416,27.768 C201.776,27.768 202.244,27.3 202.28,26.76 C201.704,26.076 199.472,24.96 195.98,24.96 C189.068,24.96 183.884,29.82 183.884,36.84 C183.884,43.716 187.808,48.54 195.656,48.54 Z M211.388,48.432 C216.14,48.432 219.056,44.652 219.056,40.008 C219.056,35.436 216.572,31.944 211.784,31.944 L211.748,31.944 C206.96,31.944 203.9,35.76 203.9,40.476 C203.9,43.824 205.592,48.432 211.388,48.432 Z M211.64,47.244 C208.436,47.244 205.772,44.688 205.772,40.044 C205.772,35.364 208.652,33.132 211.352,33.132 L211.388,33.132 C215.348,33.132 217.184,36.516 217.184,40.188 C217.184,45.804 213.8,47.244 211.64,47.244 Z M235.4,48.432 C235.832,48.432 236.264,48 236.444,47.424 L236.444,47.316 C235.256,47.172 235.004,46.668 235.004,44.724 L235.004,25.86 C235.004,23.7 234.86,23.52 234.608,23.52 C234.284,23.52 233.78,23.664 233.24,23.844 C233.273882,24.5216471 233.339654,25.2949619 233.347275,26.8242402 L233.348,32.628 C233.247826,32.5966957 233.142208,32.5555917 233.024897,32.5090435 L232.839378,32.4356824 C232.284469,32.2193422 231.461913,31.944 229.892,31.944 C224.816,31.944 221.216,35.58 221.216,40.584 C221.216,46.02 224.708,48.432 228.02,48.432 C229.892,48.432 231.872,47.568 233.492,46.164 C233.564,47.388 234.14,48.432 235.4,48.432 Z M228.704,46.884 C225.68,46.884 223.088,44.436 223.088,40.62 C223.088,35.256 226.832,33.204 229.784,33.204 C231.404,33.204 232.664,33.564 233.348,33.996 L233.348,45.012 C232.232,46.128 230.36,46.884 228.704,46.884 Z M245.948,48.432 C247.46,48.432 248.972,47.964 249.584,47.532 C250.124,47.172 250.268,46.704 250.376,46.128 L250.304,46.092 C249.656,46.416 247.856,46.92 246.344,46.92 C242.492,46.92 240.332,44.004 240.44,39.72 C241.557241,39.7572414 242.687325,39.7730797 243.731353,39.7763713 L244.645073,39.7761853 C246.218663,39.7706825 247.496,39.7398621 248.072,39.72 C249.08,39.684 251.06,39.396 251.204,38.676 C251.276,38.352 251.276,37.848 251.276,37.596 C251.168,34.788 249.404,31.944 245.768,31.944 C241.268,31.944 238.676,35.796 238.676,40.548 C238.676,45.336 241.232,48.432 245.948,48.432 Z M244.776992,38.455104 L243.635813,38.4554869 C242.652163,38.4533878 241.597143,38.4445714 240.548,38.424 C241.124,34.932 243.14,33.096 245.372,33.096 L245.408,33.096 C248.108,33.096 249.548,35.148 249.476,37.668 C249.476,38.136 249.08,38.388 248.468,38.424 C248.1656,38.424 246.6968,38.44992 244.776992,38.455104 L244.776992,38.455104 Z M267.26,48.432 C272.012,48.432 274.928,44.652 274.928,40.008 C274.928,35.436 272.444,31.944 267.656,31.944 L267.62,31.944 C262.832,31.944 259.772,35.76 259.772,40.476 C259.772,43.824 261.464,48.432 267.26,48.432 Z M267.512,47.244 C264.308,47.244 261.644,44.688 261.644,40.044 C261.644,35.364 264.524,33.132 267.224,33.132 L267.26,33.132 C271.22,33.132 273.056,36.516 273.056,40.188 C273.056,45.804 269.672,47.244 267.512,47.244 Z M279.572,48.144 C280.04,48.108 280.22,48.036 280.22,47.244 L280.22,36.516 C280.976,35.184 282.776,33.42 285.152,33.42 C287.528,33.42 289.04,34.968 289.004,38.496 L288.932,47.856 C288.932,48.072 289.004,48.216 289.256,48.216 C289.616,48.216 290.084,48.072 290.768,47.928 C290.696,47.388 290.66,46.344 290.66,44.04 L290.66,38.424 C290.66,34.32 289.184,31.944 285.62,31.944 C283.496,31.944 281.516,33.312 280.184,34.896 C280.184,33.636 280.004,31.944 279.32,31.944 C279.068,31.944 278.276,32.412 278.096,32.628 L278.096,32.7 C278.384,33.024 278.564,33.78 278.564,35.22 L278.564,41.484 C278.564,45.48 278.528,47.568 278.456,48.216 C278.744,48.216 279.176,48.216 279.572,48.144 Z M313.088,48.54 C315.032,48.54 317.192,48.072 318.128,47.712 C318.74,47.46 319.892,46.848 320.252,46.56 L320.252,38.532 C320.252,37.776 320.108,37.56 319.892,37.56 C319.46,37.56 318.596,37.92 318.272,38.1 L318.297008,38.2173013 C318.408307,38.7654365 318.444995,39.3677626 318.451053,41.8714801 L318.452,46.272 C317.408,46.848 315.248,47.208 313.484,47.208 C308.156,47.208 302.864,44.508 302.864,36.696 C302.864,30.612 307.184,26.364 313.052,26.364 C314.996,26.364 317.192,26.616 319.28,27.948 C319.82,27.984 320.252,27.3 320.216,26.976 C319.856,26.58 317.732,24.96 313.232,24.96 C306.32,24.96 300.848,29.784 300.848,36.912 C300.848,45.3 306.428,48.54 313.088,48.54 Z M325.58,27.84 C326.336,27.84 326.732,27.192 326.732,26.58 C326.732,25.932 326.3,25.356 325.652,25.356 L325.616,25.356 C325.004,25.356 324.428,25.824 324.428,26.616 C324.428,27.228 324.752,27.84 325.58,27.84 Z M324.68,48.216 C325.292,48.18 325.724,48.108 326.012,48.036 C326.3,47.964 326.444,47.784 326.444,47.136 L326.444,34.356 C326.444,32.34 326.3,32.16 326.084,32.16 C325.76,32.16 325.04,32.268 324.644,32.448 C324.7124,33.2346 324.7808,34.24863 324.787469,36.230862 L324.788,42.6 C324.788,44.688 324.716,46.776 324.68,48.216 Z M335.768,48.432 C336.704,48.432 338.036,48.072 338.648,47.604 C339.44,46.992 339.296,46.74 339.08,46.164 L339.008,46.128 C338.252,46.704 337.172,46.956 336.2,46.956 C334.976,46.956 333.536,46.488 333.356,43.968 C333.30875,43.275 333.282172,42.0652031 333.27928,40.5526494 L333.2795,39.8865 C333.284,38.064 333.32,35.886 333.392,33.672 L333.690568,33.6720795 L333.690568,33.6720795 L334.227833,33.6726458 C334.976583,33.6738333 335.476333,33.6763333 335.837333,33.6773333 L336.329432,33.6771289 C336.837917,33.6738889 337.001,33.657 337.856,33.6 C338.432,33.564 339.152,33.492 339.44,32.376 L333.392,32.376 L333.392,32.376 C333.392,31.872 333.428,31.404 333.464,30.18 C333.14,30.324 332.816,30.54 332.492,30.9 C332.096,31.332 330.512,32.772 330.332,33.24 C330.332,33.6 330.692,33.708 331.736,33.708 L331.736,43.788 L331.736,43.788 C331.736,46.74 333.104,48.432 335.768,48.432 Z M343.508,48.144 C343.868,48.072 344.048,47.928 344.048,47.352 L344.048,36.192 C344.696,35.328 346.424,33.42 349.196,33.42 C351.068,33.42 353.12,34.356 353.12,38.928 L353.119942,39.1501561 L353.119942,39.1501561 L353.119123,39.8558597 C353.117993,40.5063093 353.115849,41.2125137 353.113154,41.9264844 L353.111037,42.4626687 C353.101845,44.696589 353.088408,46.8891921 353.084877,47.5759845 L353.084,47.784 L353.084,47.784 C353.084,48.072 353.12,48.216 353.336,48.216 C353.768,48.216 354.2,48.144 354.848,47.928 C354.792,47.592 354.779556,46.9293333 354.77679,45.3979753 L354.776,38.784 C354.776,35.796 354.2,31.944 349.664,31.944 C347.54,31.944 345.56,33.168 344.048,34.716 L344.048,25.86 C344.048,23.7771429 343.914102,23.5353827 343.710864,23.5207708 L343.688,23.52 C343.292,23.52 343.328,23.556 342.248,23.844 C342.32,24.564 342.392,25.86 342.392,27.984 L342.392,41.484 C342.392,45.48 342.356,47.568 342.284,48.216 L342.461284,48.2152099 C342.727111,48.2124444 343.172,48.2 343.508,48.144 Z M371.948,48.432 C372.524,48.432 373.064,47.676 373.064,47.388 L373.064,47.316 C371.84,47.172 371.588,46.74 371.588,44.688 L371.588,38.568 C371.588,35.472 371.696,32.952 371.696,32.16 C371.372,32.16 370.688,32.268 370.328,32.376 C370.04,32.484 369.932,32.664 369.932,33.384 L369.932,44.292 C369.284,45.372 367.592,46.848 365.396,46.848 C363.596,46.848 361.328,46.344 361.328,41.484 C361.328,39.324 361.328,36.732 361.292,34.356 C361.292,32.34 361.184,32.16 360.968,32.16 C360.644,32.16 359.924,32.268 359.528,32.448 C359.5964,33.2346 359.6648,34.24863 359.671469,36.230862 L359.672,42.672 C359.672,46.128 361.112,48.432 364.64,48.432 C365.36,48.432 366.08,48.288 366.836,47.964 C367.52,47.64 368.996,46.956 370.04,45.624 C370.04,47.352 370.76,48.432 371.948,48.432 Z M380.948,48.432 C386.168,48.432 390.272,45.048 390.272,39.504 C390.272,33.456 386.06,31.944 383.756,31.944 C381.776,31.944 379.904,32.844 378.356,33.852 L378.392,25.86 C378.392,23.7 378.284,23.52 378.032,23.52 C377.78,23.52 377.168,23.664 376.556,23.844 C376.628,24.564 376.7,25.644 376.7,27.984 L376.7,46.524 C376.7,47.172 376.772,47.388 377.024,47.568 C377.384,47.82 378.86,48.432 380.948,48.432 Z M381.128,47.1 C380.444,47.1 379.112,46.992 378.356,46.632 L378.356,35.004 C379.724,34.032 381.488,33.528 382.748,33.528 C385.88,33.528 388.4,35.58 388.4,39.684 C388.4,44.148 385.52,47.1 381.128,47.1 Z" id="DownloadCodeonGithub" fill="#000000" fill-rule="nonzero"></path>
            </g>
        </g>
    </g>
</svg>