
<svg width="276px" height="76px" viewBox="0 0 276 76" version="1.1" xmlns="http://www.w3.org/2000/svg" xmlns:xlink="http://www.w3.org/1999/xlink">
    <g id="Page-1" stroke="none" stroke-width="1" fill="none" fill-rule="evenodd">
        <g id="metaverse" transform="translate(-932.000000, -742.000000)">
            <g id="Group-5" transform="translate(932.000000, 742.000000)">
                <g id="Group-2" fill="#F3F3F3">
                    <rect id="Rectangle-Copy" x="0" y="0" width="276" height="76" rx="8"></rect>
                </g>
                <path d="M42.06,48.216 C42.564,48.216 43.068,48.108 43.5,47.928 C43.464,47.208 43.392,46.02 43.392,43.536 L43.392,26.832 C44.22,26.724 44.904,26.688 45.876,26.688 C48.144,26.688 52.032,27.12 52.032,32.232 C52.032,36.192 49.188,37.56 47.028,37.56 C46.236,37.56 45.336,37.416 44.76,37.2 C44.688,37.596 44.94,38.136 45.156,38.316 C45.552,38.64 46.2,38.784 47.172,38.784 C50.088,38.784 54.048,36.948 54.048,31.98 C54.048,27.336 50.736,25.32 45.984,25.32 C44.472,25.32 42.672,25.5 41.448,25.68 C41.5714286,27.0994286 41.5890612,28.3866122 41.5915802,29.8135977 L41.592,47.568 C41.592,48.108 41.844,48.216 42.06,48.216 Z M57.648,48.216 C57.828,48.216 58.44,48.18 58.944,48.108 C59.304,48.072 59.412,47.856 59.412,47.352 L59.412,38.604 L59.412,38.604 C59.412,37.812 59.592,37.164 59.916,36.48 C60.816,34.428 62.148,33.528 63.156,33.528 C63.48,33.528 64.02,33.636 64.38,33.852 C64.776,33.672 65.136,33.096 65.136,32.7 C65.136,32.628 65.064,32.448 64.884,32.34 C64.596,32.124 64.056,31.944 63.48,31.944 C62.112,31.944 60.456,33.168 59.304,35.58 C59.304,33.24 58.8,31.944 58.08,31.944 C57.828,31.944 57.072,32.52 56.928,32.736 L56.928,32.844 C57.576,33.204 57.756,33.888 57.756,35.544 L57.756,41.484 L57.7559964,41.8647691 L57.7559964,41.8647691 L57.7552169,43.5932247 C57.7519542,46.2343143 57.7350968,47.6934194 57.648,48.216 Z M73.884,48.432 C78.636,48.432 81.552,44.652 81.552,40.008 C81.552,35.436 79.068,31.944 74.28,31.944 L74.244,31.944 C69.456,31.944 66.396,35.76 66.396,40.476 C66.396,43.824 68.088,48.432 73.884,48.432 Z M74.136,47.244 C70.932,47.244 68.268,44.688 68.268,40.044 C68.268,35.364 71.148,33.132 73.848,33.132 L73.884,33.132 C77.844,33.132 79.68,36.516 79.68,40.188 C79.68,45.804 76.296,47.244 74.136,47.244 Z M97.896,48.432 C98.328,48.432 98.76,48 98.94,47.424 L98.94,47.316 C97.752,47.172 97.5,46.668 97.5,44.724 L97.5,25.86 C97.5,23.7 97.356,23.52 97.104,23.52 C96.78,23.52 96.276,23.664 95.736,23.844 C95.7698824,24.5216471 95.835654,25.2949619 95.8432746,26.8242402 L95.844,32.628 C95.7438261,32.5966957 95.6382079,32.5555917 95.5208965,32.5090435 L95.3353783,32.4356824 C94.7804688,32.2193422 93.957913,31.944 92.388,31.944 C87.312,31.944 83.712,35.58 83.712,40.584 C83.712,46.02 87.204,48.432 90.516,48.432 C92.388,48.432 94.368,47.568 95.988,46.164 C96.06,47.388 96.636,48.432 97.896,48.432 Z M91.2,46.884 C88.176,46.884 85.584,44.436 85.584,40.62 C85.584,35.256 89.328,33.204 92.28,33.204 C93.9,33.204 95.16,33.564 95.844,33.996 L95.844,45.012 C94.728,46.128 92.856,46.884 91.2,46.884 Z M114.816,48.432 C115.392,48.432 115.932,47.676 115.932,47.388 L115.932,47.316 C114.751714,47.1771429 114.47524,46.7704898 114.456997,44.9017188 L114.456,38.568 C114.456,35.472 114.564,32.952 114.564,32.16 C114.24,32.16 113.556,32.268 113.196,32.376 C112.908,32.484 112.8,32.664 112.8,33.384 L112.8,44.292 C112.152,45.372 110.46,46.848 108.264,46.848 C106.464,46.848 104.196,46.344 104.196,41.484 C104.196,39.324 104.196,36.732 104.16,34.356 C104.16,32.34 104.052,32.16 103.836,32.16 C103.512,32.16 102.792,32.268 102.396,32.448 C102.468,33.276 102.54,34.356 102.54,36.552 L102.54,42.672 C102.54,46.128 103.98,48.432 107.508,48.432 C108.228,48.432 108.948,48.288 109.704,47.964 C110.388,47.64 111.864,46.956 112.908,45.624 C112.908,47.352 113.628,48.432 114.816,48.432 Z M126.228,48.432 C127.704,48.432 129.18,48 129.864,47.568 C130.224,47.352 130.476,46.74 130.548,46.164 L130.476,46.092 C129.324,46.704 127.632,46.92 126.588,46.92 C124.248,46.92 120.072,45.84 120.072,40.152 C120.072,36.3 122.556,33.384 126.192,33.384 C127.344,33.384 128.64,33.6 130.008,34.356 C130.476,34.32 130.764,33.816 130.764,33.24 C130.512,32.808 128.856,31.944 126.552,31.944 C121.764,31.944 118.2,35.436 118.2,40.26 C118.2,47.532 123.636,48.432 126.228,48.432 Z M138.288,48.432 C139.224,48.432 140.556,48.072 141.168,47.604 C141.96,46.992 141.816,46.74 141.6,46.164 L141.528,46.128 C140.772,46.704 139.692,46.956 138.72,46.956 C137.496,46.956 136.056,46.488 135.876,43.968 C135.82875,43.275 135.802172,42.0652031 135.79928,40.5526494 L135.7995,39.8865 C135.804,38.064 135.84,35.886 135.912,33.672 L136.210568,33.6720795 L136.210568,33.6720795 L136.747833,33.6726458 C137.496583,33.6738333 137.996333,33.6763333 138.357333,33.6773333 L138.849432,33.6771289 C139.357917,33.6738889 139.521,33.657 140.376,33.6 C140.952,33.564 141.672,33.492 141.96,32.376 L135.912,32.376 L135.912,32.376 C135.912,31.872 135.948,31.404 135.984,30.18 C135.66,30.324 135.336,30.54 135.012,30.9 C134.616,31.332 133.032,32.772 132.852,33.24 C132.852,33.6 133.212,33.708 134.256,33.708 L134.256,43.788 L134.256,43.788 C134.256,46.74 135.624,48.432 138.288,48.432 Z M145.704,27.84 C146.46,27.84 146.856,27.192 146.856,26.58 C146.856,25.932 146.424,25.356 145.776,25.356 L145.74,25.356 C145.128,25.356 144.552,25.824 144.552,26.616 C144.552,27.228 144.876,27.84 145.704,27.84 Z M144.804,48.216 C145.416,48.18 145.848,48.108 146.136,48.036 C146.424,47.964 146.568,47.784 146.568,47.136 L146.568,34.356 C146.568,32.34 146.424,32.16 146.208,32.16 C145.884,32.16 145.164,32.268 144.768,32.448 C144.8364,33.2346 144.9048,34.24863 144.911469,36.230862 L144.912,42.6 C144.912,44.688 144.84,46.776 144.804,48.216 Z M157.584,48.432 C162.336,48.432 165.252,44.652 165.252,40.008 C165.252,35.436 162.768,31.944 157.98,31.944 L157.944,31.944 C153.156,31.944 150.096,35.76 150.096,40.476 C150.096,43.824 151.788,48.432 157.584,48.432 Z M157.836,47.244 C154.632,47.244 151.968,44.688 151.968,40.044 C151.968,35.364 154.848,33.132 157.548,33.132 L157.584,33.132 C161.544,33.132 163.38,36.516 163.38,40.188 C163.38,45.804 159.996,47.244 157.836,47.244 Z M169.896,48.144 C170.364,48.108 170.544,48.036 170.544,47.244 L170.544,36.516 C171.3,35.184 173.1,33.42 175.476,33.42 C177.852,33.42 179.364,34.968 179.328,38.496 L179.256,47.856 C179.256,48.072 179.328,48.216 179.58,48.216 C179.94,48.216 180.408,48.072 181.092,47.928 C181.02,47.388 180.984,46.344 180.984,44.04 L180.984,38.424 C180.984,34.32 179.508,31.944 175.944,31.944 C173.82,31.944 171.84,33.312 170.508,34.896 C170.508,33.636 170.328,31.944 169.644,31.944 C169.392,31.944 168.6,32.412 168.42,32.628 L168.42,32.7 C168.708,33.024 168.888,33.78 168.888,35.22 L168.888,41.484 C168.888,45.48 168.852,47.568 168.78,48.216 C169.068,48.216 169.5,48.216 169.896,48.144 Z M196.284,48.54 C200.064,48.54 203.052,46.416 203.052,42.564 C203.052,39.756 201.936,38.28 197.688,35.832 C194.52,33.996 193.332,32.88 193.332,30.432 C193.332,27.336 195.888,26.292 197.76,26.292 C199.056,26.292 200.46,26.76 201.36,27.264 C201.684,27.192 202.044,26.652 201.972,26.256 C201.324,25.536 199.488,24.96 198.048,24.96 L198.012,24.96 C192.756,24.96 191.496,28.668 191.496,30.612 C191.496,32.196 191.712,34.464 195.708,36.768 C199.344,38.856 201.252,40.08 201.252,42.888 C201.252,45.156 199.848,47.136 196.356,47.136 C194.88,47.136 192.72,46.488 191.388,45.336 C191.28,45.516 191.064,46.056 191.064,46.38 C191.064,46.704 191.316,46.884 191.496,47.064 C192.18,47.676 194.016,48.54 196.284,48.54 Z M207.3,27.84 C208.056,27.84 208.452,27.192 208.452,26.58 C208.452,25.932 208.02,25.356 207.372,25.356 L207.336,25.356 C206.724,25.356 206.148,25.824 206.148,26.616 C206.148,27.228 206.472,27.84 207.3,27.84 Z M206.4,48.216 C207.012,48.18 207.444,48.108 207.732,48.036 C208.02,47.964 208.164,47.784 208.164,47.136 L208.164,34.356 C208.164,32.34 208.02,32.16 207.804,32.16 C207.48,32.16 206.76,32.268 206.364,32.448 C206.4324,33.2346 206.5008,34.24863 206.507469,36.230862 L206.508,42.6 C206.508,44.688 206.436,46.776 206.4,48.216 Z M217.488,48.432 C218.424,48.432 219.756,48.072 220.368,47.604 C221.16,46.992 221.016,46.74 220.8,46.164 L220.728,46.128 C219.972,46.704 218.892,46.956 217.92,46.956 C216.696,46.956 215.256,46.488 215.076,43.968 C215.02875,43.275 215.002172,42.0652031 214.99928,40.5526494 L214.9995,39.8865 C215.004,38.064 215.04,35.886 215.112,33.672 L215.410568,33.6720795 L215.410568,33.6720795 L215.947833,33.6726458 C216.696583,33.6738333 217.196333,33.6763333 217.557333,33.6773333 L218.049432,33.6771289 C218.557917,33.6738889 218.721,33.657 219.576,33.6 C220.152,33.564 220.872,33.492 221.16,32.376 L215.112,32.376 L215.112,32.376 C215.112,31.872 215.148,31.404 215.184,30.18 C214.86,30.324 214.536,30.54 214.212,30.9 C213.816,31.332 212.232,32.772 212.052,33.24 C212.052,33.6 212.412,33.708 213.456,33.708 L213.456,43.788 L213.456,43.788 C213.456,46.74 214.824,48.432 217.488,48.432 Z M230.016,48.432 C231.528,48.432 233.04,47.964 233.652,47.532 C234.192,47.172 234.336,46.704 234.444,46.128 L234.372,46.092 C233.724,46.416 231.924,46.92 230.412,46.92 C226.56,46.92 224.4,44.004 224.508,39.72 C225.625241,39.7572414 226.755325,39.7730797 227.799353,39.7763713 L228.713073,39.7761853 C230.286663,39.7706825 231.564,39.7398621 232.14,39.72 C233.148,39.684 235.128,39.396 235.272,38.676 C235.344,38.352 235.344,37.848 235.344,37.596 C235.236,34.788 233.472,31.944 229.836,31.944 C225.336,31.944 222.744,35.796 222.744,40.548 C222.744,45.336 225.3,48.432 230.016,48.432 Z M228.844992,38.455104 L227.703813,38.4554869 C226.720163,38.4533878 225.665143,38.4445714 224.616,38.424 C225.192,34.932 227.208,33.096 229.44,33.096 L229.476,33.096 C232.176,33.096 233.616,35.148 233.544,37.668 C233.544,38.136 233.148,38.388 232.536,38.424 C232.2336,38.424 230.7648,38.44992 228.844992,38.455104 L228.844992,38.455104 Z" id="ProductionSite" fill="#000000" fill-rule="nonzero"></path>
            </g>
        </g>
    </g>
</svg>