
<svg width="294px" height="216px" viewBox="0 0 294 216" version="1.1" xmlns="http://www.w3.org/2000/svg" xmlns:xlink="http://www.w3.org/1999/xlink">
    <g id="Page-1" stroke="none" stroke-width="1" fill="none" fill-rule="evenodd">
        <g id="metaverse" transform="translate(-116.000000, -303.000000)" fill="#000000" fill-rule="nonzero">
            <path d="M157.92,358.16 C159.76,357.84 160.48,356.48 160.64,355.36 L160.56,355.2 C158.32,355.508966 153.320618,355.594197 149.450191,355.599708 L149.04,355.6 C145.28,355.6 140.24,355.44 138.72,354.88 L138.72,311.76 C138.72,308 138.4,307.76 137.92,307.76 C137.04,307.76 135.52,308.16 134.48,308.4 C134.630303,309.827879 134.710009,312.808889 134.719118,317.608303 L134.72,356.4 L135.52,357.6 C137.702564,358.067692 143.07503,358.459435 149.047306,358.479216 L149.52,358.48 C154.56,358.48 156.96,358.32 157.92,358.16 Z M179.52,358.96 C182.88,358.96 186.24,357.92 187.6,356.96 C188.8,356.16 189.12,355.12 189.36,353.84 L189.2,353.76 C187.76,354.48 183.76,355.6 180.4,355.6 C171.84,355.6 167.04,349.12 167.28,339.6 C167.867755,339.619592 168.45711,339.636518 169.045148,339.65104 L169.925853,339.671052 C171.68383,339.7076 173.416839,339.723683 175.046152,339.726351 L175.851803,339.7266 C179.700491,339.722716 182.866939,339.647347 184.24,339.6 C186.48,339.52 190.88,338.88 191.2,337.28 C191.36,336.56 191.36,335.44 191.36,334.88 C191.12,328.64 187.2,322.32 179.12,322.32 C169.12,322.32 163.36,330.88 163.36,341.44 C163.36,352.08 169.04,358.96 179.52,358.96 Z M170.775087,336.768071 L169.96544,336.75888 C169.55952,336.75384 169.15216,336.74812 168.74428,336.74166 L167.928099,336.727736 C167.792044,336.725244 167.656,336.722667 167.52,336.72 C168.8,328.96 173.28,324.88 178.24,324.88 L178.32,324.88 C184.32,324.88 187.52,329.44 187.36,335.04 C187.36,336.08 186.48,336.64 185.12,336.72 C184.149333,336.72 177.770667,336.840178 170.775087,336.768071 L170.775087,336.768071 Z M208.72,358.96 C210.8,358.96 213.76,358.16 215.12,357.12 C216.88,355.76 216.56,355.2 216.08,353.92 L215.92,353.84 C214.24,355.12 211.84,355.68 209.68,355.68 C206.96,355.68 203.76,354.64 203.36,349.04 C203.12,345.52 203.12,336 203.44,326.16 L203.837124,326.160063 L203.837124,326.160063 L204.934343,326.160919 C206.878186,326.163364 208.112785,326.169985 208.977536,326.172124 L209.769863,326.172333 C210.073843,326.171343 210.322446,326.168684 210.551041,326.163454 L210.719288,326.159035 L210.719288,326.159035 L210.883349,326.153567 C211.481279,326.131492 212.061639,326.086557 213.36,326 C214.64,325.92 216.24,325.76 216.88,323.28 L203.44,323.28 L203.44,323.28 C203.44,322.16 203.52,321.12 203.6,318.4 C202.88,318.72 202.16,319.2 201.44,320 C200.56,320.96 197.04,324.16 196.64,325.2 C196.64,326 197.44,326.24 199.76,326.24 L199.76,348.64 L199.76,348.64 C199.76,355.2 202.8,358.96 208.72,358.96 Z M223.12,318.24 C224.48,316.56 227.12,310.96 227.12,307.04 L227.12,306.96 C227.12,305.28 226.96,303.6 225.44,303.6 C224.56,303.6 223.28,304.32 222.8,305.12 C222.96,306.08 222.96,307.12 222.96,307.84 C222.96,312.08 221.04,317.12 219.92,319.6 C221.92,319.68 222.56,319.12 223.12,318.24 Z M240.64,358.96 C246.08,358.96 252.4,355.84 252.4,348.56 C252.4,346.24 251.44,343.52 247.92,341.36 C245.36,339.76 243.52,339.12 240.4,337.52 C238.32,336.48 236.08,334.72 236.08,331.44 C236.08,327.44 239.28,325.28 243.04,325.28 C244.96,325.28 247.2,325.92 249.2,327.04 C250.08,326.88 250.88,325.52 250.72,324.88 C249.36,323.12 245.84,322.32 243.44,322.32 L243.36,322.32 C237.6,322.32 232.48,326.32 232.48,332.08 C232.48,336.48 235.2,339.12 238.4,340.8 C240.64,342 241.84,342.48 244.08,343.52 C247.52,345.12 248.64,347.04 248.64,349.52 C248.64,353.04 246,355.92 240.96,355.92 C238.24,355.92 235.68,355.04 233.52,353.6 C232.72,353.04 232.56,353.2 232.16,353.44 C231.68,353.92 231.28,354.8 231.36,355.52 C232.48,357.12 235.76,358.96 240.64,358.96 Z M283.12,358.96 C294.72,358.96 303.84,351.44 303.84,339.12 C303.84,325.68 294.48,322.32 289.36,322.32 C284.96,322.32 280.8,324.32 277.36,326.56 L277.44,308.8 C277.44,304 277.2,303.6 276.64,303.6 C276.08,303.6 274.72,303.92 273.36,304.32 C273.515429,305.874286 273.670857,308.18351 273.679612,313.081096 L273.68,354.72 C273.68,356.16 273.84,356.64 274.4,357.04 C275.2,357.6 278.48,358.96 283.12,358.96 Z M283.52,356 C282,356 279.04,355.76 277.36,354.96 L277.36,329.12 C280.4,326.96 284.32,325.84 287.12,325.84 C294.08,325.84 299.68,330.4 299.68,339.52 C299.68,349.44 293.28,356 283.52,356 Z M338.96,358.96 C340.24,358.96 341.44,357.28 341.44,356.64 L341.44,356.48 C338.72,356.16 338.16,355.2 338.16,350.64 L338.16,337.04 C338.16,330.16 338.4,324.56 338.4,322.8 C337.68,322.8 336.16,323.04 335.36,323.28 C334.72,323.52 334.48,323.92 334.48,325.52 L334.48,349.76 C333.04,352.16 329.28,355.44 324.4,355.44 C320.4,355.44 315.36,354.32 315.36,343.52 L315.35936,340.53632 C315.3568,336.4352 315.344,331.904 315.28,327.68 C315.28,323.2 315.04,322.8 314.56,322.8 C313.84,322.8 312.24,323.04 311.36,323.44 C311.515,325.2225 311.67,327.530547 311.679536,332.109707 L311.68,346.16 C311.68,353.84 314.88,358.96 322.72,358.96 C324.32,358.96 325.92,358.64 327.6,357.92 C329.12,357.2 332.4,355.68 334.72,352.72 C334.72,356.56 336.32,358.96 338.96,358.96 Z M351.28,313.2 C352.96,313.2 353.84,311.76 353.84,310.4 C353.84,308.96 352.88,307.68 351.44,307.68 L351.36,307.68 C350,307.68 348.72,308.72 348.72,310.48 C348.72,311.84 349.44,313.2 351.28,313.2 Z M349.28,358.48 C350.64,358.4 351.6,358.24 352.24,358.08 C352.88,357.92 353.2,357.52 353.2,356.08 L353.2,327.68 C353.2,323.2 352.88,322.8 352.4,322.8 C351.68,322.8 350.08,323.04 349.2,323.44 C349.355,325.2225 349.51,327.530547 349.519536,332.109707 L349.52,346 C349.52,350.64 349.36,355.28 349.28,358.48 Z M365.04,358.48 C365.76,358.48 366.88,358.24 368.08,357.84 C367.92,355.68 367.76,351.36 367.76,347.44 L367.76,308.8 C367.76,304 367.52,303.6 367.04,303.6 C366.4,303.6 365.36,303.68 363.76,304.32 C363.914667,305.866667 364.069333,308.609422 364.079473,313.054113 L364.08,357.44 C364.08,358.24 364.4,358.48 365.04,358.48 Z M407.12,358.96 C408.08,358.96 409.04,358 409.44,356.72 L409.44,356.48 C406.8,356.16 406.24,355.04 406.24,350.72 L406.24,308.8 C406.24,304 405.92,303.6 405.36,303.6 C404.64,303.6 403.52,303.92 402.32,304.32 C402.397143,305.862857 402.548673,307.628878 402.559399,311.196144 L402.56,323.84 C401.28,323.44 399.6,322.32 394.88,322.32 C383.6,322.32 375.6,330.4 375.6,341.52 C375.6,353.6 383.36,358.96 390.72,358.96 C394.88,358.96 399.28,357.04 402.88,353.92 C403.04,356.64 404.32,358.96 407.12,358.96 Z M392.24,355.52 C385.52,355.52 379.76,350.08 379.76,341.6 C379.76,329.68 388.08,325.12 394.64,325.12 C398.24,325.12 401.04,325.92 402.56,326.88 L402.56,351.36 C400.08,353.84 395.92,355.52 392.24,355.52 Z M146.24,455.6 C147.325714,455.6 155.252536,444.022741 161.275386,430.560686 L161.653163,429.708035 C161.715677,429.565539 161.777959,429.422857 161.84,429.28 C166.64,418.16 169.76,407.44 170.32,405.28 C170.64,404.08 170.64,403.28 170.24,402.88 C169.68,402.32 168.64,402.24 167.76,402.32 C166.08,409.6 160.4,425.52 156.72,433.12 C155.695281,430.524045 153.722601,425.02587 151.704857,419.421347 L151.386024,418.535947 C151.332866,418.388368 151.27971,418.240818 151.226573,418.093348 L150.908096,417.209881 C148.470133,410.450175 146.140225,404.073708 145.52,403.04 C145.2,402.56 144.8,402.32 144.32,402.32 C143.52,402.32 142.16,403.12 141.44,403.76 C142.886588,406.762353 144.575291,410.807662 146.210642,414.939629 L146.548132,415.795442 C146.604221,415.938178 146.660222,416.08094 146.716124,416.223687 L147.05024,417.07968 C149.8784,424.3488 152.384,431.376 152.96,432.96 C153.52,434.4 154.4,436.4 154.72,436.8 C150.8,444.4 146,451.12 143.44,454.48 L143.44,454.64 C144.16,455.28 145.28,455.6 146.24,455.6 Z M190.56,438.96 C201.12,438.96 207.6,430.56 207.6,420.24 C207.6,410.08 202.08,402.32 191.44,402.32 L191.36,402.32 C180.72,402.32 173.92,410.8 173.92,421.28 C173.92,428.72 177.68,438.96 190.56,438.96 Z M191.12,436.32 C184,436.32 178.08,430.64 178.08,420.32 C178.08,409.92 184.48,404.96 190.48,404.96 L190.56,404.96 C199.36,404.96 203.44,412.48 203.44,420.64 C203.44,433.12 195.92,436.32 191.12,436.32 Z M242.72,438.96 C244,438.96 245.2,437.28 245.2,436.64 L245.2,436.48 C242.53913,436.166957 241.945369,435.241437 241.92081,430.932318 L241.92,417.04 C241.92,410.16 242.16,404.56 242.16,402.8 C241.44,402.8 239.92,403.04 239.12,403.28 C238.48,403.52 238.24,403.92 238.24,405.52 L238.24,429.76 C236.8,432.16 233.04,435.44 228.16,435.44 C224.16,435.44 219.12,434.32 219.12,423.52 L219.119976,422.547627 L219.119976,422.547627 L219.11936,420.53632 C219.1168,416.4352 219.104,411.904 219.04,407.68 C219.04,403.2 218.8,402.8 218.32,402.8 C217.6,402.8 216,403.04 215.12,403.44 C215.28,405.28 215.44,407.68 215.44,412.56 L215.44,426.16 C215.44,433.84 218.64,438.96 226.48,438.96 C228.08,438.96 229.68,438.64 231.36,437.92 C232.88,437.2 236.16,435.68 238.48,432.72 C238.48,436.56 240.08,438.96 242.72,438.96 Z M256.16,438.24 C256.96,438.16 257.2,437.68 257.2,436.56 L257.2,417.12 L257.2,417.12 C257.2,415.36 257.6,413.92 258.32,412.4 C260.32,407.84 263.28,405.84 265.52,405.84 C266.24,405.84 267.44,406.08 268.24,406.56 C269.12,406.16 269.92,404.88 269.92,404 C269.92,403.84 269.76,403.44 269.36,403.2 C268.72,402.72 267.52,402.32 266.24,402.32 C263.2,402.32 259.52,405.04 256.96,410.4 C256.96,405.2 255.84,402.32 254.24,402.32 C253.68,402.32 252,403.6 251.68,404.08 L251.68,404.32 C253.12,405.12 253.52,406.64 253.52,410.32 L253.52,423.52 L253.519998,424.008978 L253.519998,424.008978 L253.51922,427.190871 C253.514733,433.704582 253.484444,437.253333 253.28,438.48 C253.68,438.48 255.04,438.4 256.16,438.24 Z M303.76,438.96 C314.32,438.96 320.8,430.56 320.8,420.24 C320.8,410.08 315.28,402.32 304.64,402.32 L304.56,402.32 C293.92,402.32 287.12,410.8 287.12,421.28 C287.12,428.72 290.88,438.96 303.76,438.96 Z M304.32,436.32 C297.2,436.32 291.28,430.64 291.28,420.32 C291.28,409.92 297.68,404.96 303.68,404.96 L303.76,404.96 C312.56,404.96 316.64,412.48 316.64,420.64 C316.64,433.12 309.12,436.32 304.32,436.32 Z M358.24,438.96 C358.8,438.8 359.2,438.56 359.68,438.32 C360.48,437.92 360.96,437.28 361.52,435.76 C366.08,424 368.48,417.52 372.08,408.08 C373.44,404.64 373.36,403.84 372.88,403.28 C372.16,402.72 371.28,402.32 370.56,402.32 L370.533687,402.391619 L370.533687,402.391619 L370.48142,402.533054 L370.48142,402.533054 L370.403103,402.743118 C370.376879,402.813125 370.350455,402.88336 370.323586,402.954548 L370.269184,403.098409 C369.451288,405.257592 368.0992,408.6816 359.84,432.32 C355.6,418.88 353.52,412.88 351.68,406.8 C350.96,404.32 350.48,403.28 349.84,403.28 C348.88,403.28 347.84,403.84 347.28,404.32 C347.36,404.72 347.68,405.68 347.84,406.24 C345.796129,412.371613 344.102893,417.235546 342.415747,422.037705 L341.853118,423.637791 C340.820312,426.573153 339.775484,429.535484 338.64,432.8 C335.2,422.4 331.6,412.08 328.48,403.36 C328.24,402.72 327.92,402.32 327.44,402.32 L327.36,402.32 C326.88,402.32 325.52,402.88 324.56,403.92 C325.2,405.36 327.04,410.24 330,418.4 C330.635556,420.191111 331.303567,422.13059 331.968315,424.086726 L332.427565,425.442016 C334.360713,431.16192 336.195556,436.764444 337.04,438.96 C337.84,438.8 338.16,438.56 338.8,438.24 C339.36,437.92 339.84,437.28 340.16,436.4 C341.04,434.16 347.84,414.72 349.28,410.24 C350.518519,414.124444 351.499534,417.176955 352.42516,420.084023 L352.715857,420.998011 C354.30716,426.00716 355.795556,430.795556 358.24,438.96 Z M381.92,438.32 C382.96,438.24 383.36,438.08 383.36,436.32 L383.36,412.48 C385.04,409.52 389.04,405.6 394.32,405.6 C399.6,405.6 402.96,409.04 402.88,416.88 L402.72,437.68 C402.72,438.16 402.88,438.48 403.44,438.48 C404.24,438.48 405.28,438.16 406.8,437.84 C406.648889,436.706667 406.569136,434.574321 406.560741,430.027695 L406.56,416.72 C406.56,407.6 403.28,402.32 395.36,402.32 C390.64,402.32 386.24,405.36 383.28,408.88 C383.28,406.08 382.88,402.32 381.36,402.32 C380.8,402.32 379.04,403.36 378.64,403.84 L378.64,404 C379.28,404.72 379.68,406.4 379.68,409.6 L379.68,423.52 L379.679918,424.008978 L379.679918,424.008978 L379.679259,424.960919 C379.670864,432.905679 379.591111,437.12 379.44,438.48 C380.08,438.48 381.04,438.48 381.92,438.32 Z M120.16,517.44 C120.283373,516.776867 120.440192,515.969551 120.624795,515.040116 L120.768369,514.320486 C121.759082,509.374902 123.409062,501.514218 125.010911,493.496385 L125.370217,491.690884 C126.563205,485.671465 127.699277,479.68 128.48,474.88 C130.287059,479.595294 132.472803,485.23737 134.671443,490.958583 L135.22116,492.390045 C139.068097,502.414948 142.861176,512.465882 144.64,518 C145.04,518 146,517.84 146.48,517.6 C147.12,517.28 147.44,516.64 147.76,515.92 C149.292698,512.07746 150.95355,507.978614 152.629381,503.867101 L153.221288,502.415849 L153.221288,502.415849 L153.813333,500.965926 C157.955556,490.826667 162.026667,480.96 164.32,475.04 L169.36,503.28 C170.48,509.44 171.04,512.4 172.16,517.2 C172.32,518.08 172.56,518.48 173.36,518.48 C174.32,518.48 175.44,518.16 176.4,517.76 C175.44,513.92 174.16,508 172.56,499.6 L166.72,469.52 C166.48,468.16 166.16,467.76 165.68,467.76 C164.88,467.76 163.84,468.08 163.2,468.4 L163.52,470.16 C160.630448,476.858507 155.368875,489.487066 150.036496,502.469658 L148.872829,505.305696 C148.485156,506.251485 148.097993,507.197001 147.712227,508.1401 L147.134735,509.552667 C146.94266,510.02274 146.751045,510.49194 146.56,510.96 L134.16,479.84 C131.44,473.12 130.08,469.76 129.28,467.76 C128,467.76 126.56,468.08 125.92,468.4 L126.64,470.48 C126.079101,473.062472 125.507961,475.738821 124.936303,478.449959 L124.67246,479.703509 C124.540555,480.331303 124.408703,480.960467 124.277022,481.590272 L124.013924,482.850525 C123.926324,483.270752 123.838836,483.691048 123.751496,484.1112 L123.48995,485.371006 C123.446445,485.58083 123.402985,485.790564 123.359575,486.00018 L123.099751,487.256263 L123.099751,487.256263 L122.841341,488.508249 C120.265017,501.003328 117.932584,512.690337 116.8,517.76 C117.929412,518.437647 118.562768,518.477509 118.900159,518.48 L118.96,518.48 C119.52,518.48 119.84,518.4 120.16,517.44 Z M198.24,518.96 C201.6,518.96 204.96,517.92 206.32,516.96 C207.52,516.16 207.84,515.12 208.08,513.84 L207.92,513.76 C206.48,514.48 202.48,515.6 199.12,515.6 C190.56,515.6 185.76,509.12 186,499.6 C186.587755,499.619592 187.17711,499.636518 187.765148,499.65104 L188.645853,499.671052 C190.40383,499.7076 192.136839,499.723683 193.766152,499.726351 L194.571803,499.7266 C198.420491,499.722716 201.586939,499.647347 202.96,499.6 C205.2,499.52 209.6,498.88 209.92,497.28 C210.08,496.56 210.08,495.44 210.08,494.88 C209.84,488.64 205.92,482.32 197.84,482.32 C187.84,482.32 182.08,490.88 182.08,501.44 C182.08,512.08 187.76,518.96 198.24,518.96 Z M189.495087,496.768071 L188.68544,496.75888 C188.27952,496.75384 187.87216,496.74812 187.46428,496.74166 L186.648099,496.727736 C186.512044,496.725244 186.376,496.722667 186.24,496.72 C187.52,488.96 192,484.88 196.96,484.88 L197.04,484.88 C203.04,484.88 206.24,489.44 206.08,495.04 C206.08,496.08 205.2,496.64 203.84,496.72 C202.869333,496.72 196.490667,496.840178 189.495087,496.768071 L189.495087,496.768071 Z M227.44,518.96 C229.52,518.96 232.48,518.16 233.84,517.12 C235.6,515.76 235.28,515.2 234.8,513.92 L234.64,513.84 C232.96,515.12 230.56,515.68 228.4,515.68 C225.68,515.68 222.48,514.64 222.08,509.04 C221.84,505.52 221.84,496 222.16,486.16 L222.557124,486.160063 L222.557124,486.160063 L223.654343,486.160919 C225.598186,486.163364 226.832785,486.169985 227.697536,486.172124 L228.489863,486.172333 C228.793843,486.171343 229.042446,486.168684 229.271041,486.163454 L229.439288,486.159035 L229.439288,486.159035 L229.603349,486.153567 C230.201279,486.131492 230.781639,486.086557 232.08,486 C233.36,485.92 234.96,485.76 235.6,483.28 L222.16,483.28 L222.16,483.28 C222.16,482.16 222.24,481.12 222.32,478.4 C221.6,478.72 220.88,479.2 220.16,480 C219.28,480.96 215.76,484.16 215.36,485.2 C215.36,486 216.16,486.24 218.48,486.24 L218.48,508.64 L218.48,508.64 C218.48,515.2 221.52,518.96 227.44,518.96 Z M262.88,518.96 C264.32,518.96 266.24,518.32 266.08,515.84 L266,515.76 C265.44,516 264.96,516.08 264.48,516.08 C262.88,516.08 262.08,515.04 262,512.88 C261.922162,508.443243 262.147261,499.386706 262.159485,495.584478 L262.16,495.28 C262.16,488.88 260.32,482.32 251.44,482.32 C246.24,482.32 241.6,485.6 239.6,487.76 C239.6,488.96 240.56,490.08 241.6,489.68 C244.48,487.36 247.44,485.68 250.88,485.68 C256.4,485.68 258.56,489.92 258.48,494.16 L258.4,498 C257.28,498.24 255.76,498.56 254.48,498.88 C251.52,499.68 238.8,502 238.8,510.96 C238.8,514.8 241.68,518.96 247.28,518.96 C251.84,518.96 255.68,516.56 258.32,513.2 C258.24,516 259.6,518.96 262.88,518.96 Z M248.88,515.76 C245.68,515.76 242.96,513.44 242.96,510.24 L242.96,510.16 C242.96,503.84 252.32,501.84 258.4,500.64 L258.32,507.84 C258.32,509.2 258.16,509.84 257.84,510.4 C256.4,512.56 253.6,515.76 248.88,515.76 Z M282.72,518.96 C283.6,518.8 284.16,518.64 284.8,518.24 C285.44,517.92 285.84,516.96 286.56,515.28 C290.891707,504.883902 293.855229,497.419631 296.80286,490.123801 L297.280929,488.941733 C297.440381,488.547912 297.6,488.154146 297.76,487.76 C299.36,483.92 299.28,483.52 298.32,483.04 C297.52,482.56 296.96,482.32 296.4,482.32 C295.14,485.812 293.0214,491.248 290.86068,496.69615 L290.380159,497.906265 C289.899607,499.115009 289.419963,500.317287 288.950185,501.491898 L288.484028,502.656502 C286.712244,507.079444 285.129333,510.992 284.24,513.2 C283.378462,510.676923 282.332834,507.727811 281.231237,504.68308 L280.899207,503.767122 C280.788056,503.461067 280.676474,503.154386 280.564588,502.84741 L280.228148,501.925926 C277.306667,493.937778 274.266667,485.973333 273.36,483.84 C272.88,482.64 272.48,482.32 272.16,482.32 L272.08,482.32 C271.28,482.32 269.76,483.28 269.12,483.84 L269.183496,483.989551 C269.834672,485.511675 270.990968,487.894194 274.32,496.72 C280.24,512.72 282,516.88 282.72,518.96 Z M318.48,518.96 C321.84,518.96 325.2,517.92 326.56,516.96 C327.76,516.16 328.08,515.12 328.32,513.84 L328.16,513.76 C326.72,514.48 322.72,515.6 319.36,515.6 C310.8,515.6 306,509.12 306.24,499.6 C306.827755,499.619592 307.41711,499.636518 308.005148,499.65104 L308.885853,499.671052 C310.64383,499.7076 312.376839,499.723683 314.006152,499.726351 L314.811803,499.7266 C318.660491,499.722716 321.826939,499.647347 323.2,499.6 C325.44,499.52 329.84,498.88 330.16,497.28 C330.32,496.56 330.32,495.44 330.32,494.88 C330.08,488.64 326.16,482.32 318.08,482.32 C308.08,482.32 302.32,490.88 302.32,501.44 C302.32,512.08 308,518.96 318.48,518.96 Z M309.735087,496.768071 L308.92544,496.75888 C308.51952,496.75384 308.11216,496.74812 307.70428,496.74166 L306.888099,496.727736 C306.752044,496.725244 306.616,496.722667 306.48,496.72 C307.76,488.96 312.24,484.88 317.2,484.88 L317.28,484.88 C323.28,484.88 326.48,489.44 326.32,495.04 C326.32,496.08 325.44,496.64 324.08,496.72 C323.109333,496.72 316.730667,496.840178 309.735087,496.768071 L309.735087,496.768071 Z M340.72,518.24 C341.52,518.16 341.76,517.68 341.76,516.56 L341.76,497.12 L341.76,497.12 C341.76,495.36 342.16,493.92 342.88,492.4 C344.88,487.84 347.84,485.84 350.08,485.84 C350.8,485.84 352,486.08 352.8,486.56 C353.68,486.16 354.48,484.88 354.48,484 C354.48,483.84 354.32,483.44 353.92,483.2 C353.28,482.72 352.08,482.32 350.8,482.32 C347.76,482.32 344.08,485.04 341.52,490.4 C341.52,485.2 340.4,482.32 338.8,482.32 C338.24,482.32 336.56,483.6 336.24,484.08 L336.24,484.32 C337.68,485.12 338.08,486.64 338.08,490.32 L338.08,503.52 L338.079998,504.008978 L338.079998,504.008978 L338.07922,507.190871 C338.074733,513.704582 338.044444,517.253333 337.84,518.48 C338.24,518.48 339.6,518.4 340.72,518.24 Z M366.32,518.96 C371.76,518.96 378.08,515.84 378.08,508.56 C378.08,506.24 377.12,503.52 373.6,501.36 C371.04,499.76 369.2,499.12 366.08,497.52 C364,496.48 361.76,494.72 361.76,491.44 C361.76,487.44 364.96,485.28 368.72,485.28 C370.64,485.28 372.88,485.92 374.88,487.04 C375.76,486.88 376.56,485.52 376.4,484.88 C375.04,483.12 371.52,482.32 369.12,482.32 L369.04,482.32 C363.28,482.32 358.16,486.32 358.16,492.08 C358.16,496.48 360.88,499.12 364.08,500.8 C366.32,502 367.52,502.48 369.76,503.52 C373.2,505.12 374.32,507.04 374.32,509.52 C374.32,513.04 371.68,515.92 366.64,515.92 C363.92,515.92 361.36,515.04 359.2,513.6 C358.4,513.04 358.24,513.2 357.84,513.44 C357.36,513.92 356.96,514.8 357.04,515.52 C358.16,517.12 361.44,518.96 366.32,518.96 Z M398.08,518.96 C401.44,518.96 404.8,517.92 406.16,516.96 C407.36,516.16 407.68,515.12 407.92,513.84 L407.76,513.76 C406.32,514.48 402.32,515.6 398.96,515.6 C390.4,515.6 385.6,509.12 385.84,499.6 C386.427755,499.619592 387.01711,499.636518 387.605148,499.65104 L388.485853,499.671052 C390.24383,499.7076 391.976839,499.723683 393.606152,499.726351 L394.411803,499.7266 C398.260491,499.722716 401.426939,499.647347 402.8,499.6 C405.04,499.52 409.44,498.88 409.76,497.28 C409.92,496.56 409.92,495.44 409.92,494.88 C409.68,488.64 405.76,482.32 397.68,482.32 C387.68,482.32 381.92,490.88 381.92,501.44 C381.92,512.08 387.6,518.96 398.08,518.96 Z M389.335087,496.768071 L388.52544,496.75888 C388.11952,496.75384 387.71216,496.74812 387.30428,496.74166 L386.488099,496.727736 C386.352044,496.725244 386.216,496.722667 386.08,496.72 C387.36,488.96 391.84,484.88 396.8,484.88 L396.88,484.88 C402.88,484.88 406.08,489.44 405.92,495.04 C405.92,496.08 405.04,496.64 403.68,496.72 C402.709333,496.72 396.330667,496.840178 389.335087,496.768071 L389.335087,496.768071 Z" id="Let’sbuildyourownMetaverse"></path>
        </g>
    </g>
</svg>