
<svg width="548px" height="50px" viewBox="0 0 548 50" >
    <g id="Page-1" stroke="none" stroke-width="1" fill="none" fill-rule="evenodd">
        <g id="metaverse" transform="translate(-73.000000, -944.000000)" fill="#000000" fill-rule="nonzero">
            <path d="M115.056,993.864 C115.488,993.864 116.424,993.504 116.784,993.144 C117.216,992.712 117.648,992.28 118.224,990.696 C122.904,977.448 127.656,964.2 132.264,950.88 C132.84,949.296 132.912,948.792 132.48,948.432 C132.048,948.072 131.04,947.784 130.32,947.784 C129.355516,950.887121 126.339489,959.65641 123.09265,969.07063 L122.724195,970.138876 C122.662655,970.317287 122.601056,970.495859 122.539412,970.67456 L122.1691,971.748036 C121.983768,972.285275 121.798248,972.823062 121.612869,973.360487 L121.242396,974.434585 L121.242396,974.434585 L120.872886,975.506099 C119.274612,980.141388 117.72,984.658286 116.424,988.464 C115.697739,985.377391 112.911108,976.166904 109.832093,966.172579 L109.512604,965.136107 C109.405808,964.78983 109.298737,964.442839 109.191463,964.095355 L108.869107,963.051639 C108.707697,962.529259 108.545995,962.00626 108.384244,961.48338 L108.06075,960.438 C106.821,956.433 105.588,952.464 104.472,948.864 C104.184,948 103.968,947.784 103.464,947.784 L103.392,947.784 C102.456,947.784 101.52,948.072 101.16,948.288 C101.304,948.72 101.448,949.728 101.448,950.088 C101.2608,950.65824 101.074061,951.229171 100.887875,951.800439 L100.331067,953.514896 C96.0763392,966.661363 92.16288,979.79808 89.712,988.608 C88.9241379,985.400276 85.2332176,973.96722 81.6646484,962.731847 L81.193312,961.24669 C81.1410784,961.081962 81.0889001,960.917356 81.0367867,960.752901 L80.7249631,959.768181 C80.0513674,957.639448 79.392,955.545103 78.768,953.544 C77.184,948.36 76.896,947.784 76.248,947.784 C75.6,947.784 74.376,948.216 73.296,948.864 C78.768,963.624 83.736,978.816 88.416,993.864 C88.992,993.864 89.424,993.648 90.072,993.288 C90.72,992.856 91.008,992.28 91.584,990.336 C92.5818592,986.801915 95.1403372,978.826069 97.706593,970.651046 L98.082018,969.453771 C99.8325777,963.864452 101.551437,958.278761 102.744,954.048 C108.216,971.76 113.328,987.6 115.056,993.864 Z M141.192,993.288 C141.912,993.144 142.272,992.856 142.272,991.704 L142.272,969.384 C143.568,967.656 147.024,963.84 152.568,963.84 C156.312,963.84 160.416,965.712 160.416,974.856 L160.415948,975.152943 L160.415948,975.152943 L160.415191,976.080861 C160.413741,977.24648 160.41043,978.520706 160.405989,979.827867 L160.403459,980.543675 C160.384586,985.690522 160.350478,991.130395 160.344809,992.342982 L160.344,992.568 L160.344,992.568 C160.344,993.144 160.416,993.432 160.848,993.432 C161.712,993.432 162.576,993.288 163.872,992.856 C163.755429,992.156571 163.733224,990.749388 163.728995,987.412167 L163.728,974.568 C163.728,968.592 162.576,960.888 153.504,960.888 C149.256,960.888 145.296,963.336 142.272,966.432 L142.272,948.72 C142.272,944.498182 141.996942,944.058409 141.58123,944.0406 L141.552,944.04 C140.76,944.04 140.832,944.112 138.672,944.688 C138.816,946.128 138.96,948.72 138.96,952.968 L138.96,979.968 L138.959914,980.442948 L138.959914,980.442948 L138.959222,981.365549 C138.951101,988.450752 138.87936,992.21376 138.744,993.432 L138.947615,993.432 C139.446367,993.429061 140.451429,993.411429 141.192,993.288 Z M192.168,993.864 C193.464,993.864 195.192,993.288 195.048,991.056 L194.976,990.984 C194.472,991.2 194.04,991.272 193.608,991.272 C192.168,991.272 191.448,990.336 191.376,988.392 C191.304,984.288 191.52,975.792 191.52,972.552 C191.52,966.792 189.864,960.888 181.872,960.888 C177.192,960.888 173.016,963.84 171.216,965.784 C171.216,966.864 172.08,967.872 173.016,967.512 C175.608,965.424 178.272,963.912 181.368,963.912 C186.336,963.912 188.28,967.728 188.208,971.544 L188.136,975 C187.128,975.216 185.76,975.504 184.608,975.792 C181.944,976.512 170.496,978.6 170.496,986.664 C170.496,990.12 173.088,993.864 178.128,993.864 C182.232,993.864 185.688,991.704 188.064,988.68 C187.992,991.2 189.216,993.864 192.168,993.864 Z M179.568,990.984 C176.688,990.984 174.24,988.896 174.24,986.016 L174.24,985.944 C174.24,980.256 182.664,978.456 188.136,977.376 L188.064,983.856 C188.064,985.08 187.92,985.656 187.632,986.16 C186.336,988.104 183.816,990.984 179.568,990.984 Z M210.456,993.864 C212.328,993.864 214.992,993.144 216.216,992.208 C217.8,990.984 217.512,990.48 217.08,989.328 L216.936,989.256 C215.424,990.408 213.264,990.912 211.32,990.912 C208.872,990.912 205.992,989.976 205.632,984.936 C205.538264,983.561208 205.485206,981.16947 205.47871,978.178565 L205.478558,976.978557 C205.484809,973.565404 205.546978,969.508733 205.672623,965.345061 L205.704,964.344 L205.704,964.344 L206.079504,964.344062 L206.079504,964.344062 L207.112501,964.344909 C208.614333,964.346893 209.640105,964.351625 210.388284,964.354043 L210.692514,964.354923 C210.74058,964.355041 210.787374,964.355144 210.832968,964.355229 L211.327164,964.355301 C211.735894,964.354388 212.034513,964.350483 212.319291,964.341131 L212.47383,964.335474 C212.988243,964.314721 213.514759,964.274483 214.632,964.2 C215.784,964.128 217.224,963.984 217.8,961.752 L205.704,961.752 L205.704,961.752 C205.704,960.744 205.776,959.808 205.848,957.36 C205.2,957.648 204.552,958.08 203.904,958.8 C203.112,959.664 199.944,962.544 199.584,963.48 C199.584,964.2 200.304,964.416 202.392,964.416 L202.392,984.576 L202.392,984.576 C202.392,990.48 205.128,993.864 210.456,993.864 Z M238.248,952.68 C239.76,952.68 240.552,951.384 240.552,950.16 C240.552,948.864 239.688,947.712 238.392,947.712 L238.32,947.712 C237.096,947.712 235.944,948.648 235.944,950.232 C235.944,951.456 236.592,952.68 238.248,952.68 Z M236.448,993.432 C237.672,993.36 238.536,993.216 239.112,993.072 C239.688,992.928 239.976,992.568 239.976,991.272 L239.976,965.712 C239.976,961.68 239.688,961.32 239.256,961.32 C238.608,961.32 237.168,961.536 236.376,961.896 C236.52,963.552 236.664,965.712 236.664,970.104 L236.664,982.2 C236.664,986.376 236.52,990.552 236.448,993.432 Z M255.168,993.864 C260.064,993.864 265.752,991.056 265.752,984.504 C265.752,982.416 264.888,979.968 261.72,978.024 C259.416,976.584 257.76,976.008 254.952,974.568 C253.08,973.632 251.064,972.048 251.064,969.096 C251.064,965.496 253.944,963.552 257.328,963.552 C259.056,963.552 261.072,964.128 262.872,965.136 C263.664,964.992 264.384,963.768 264.24,963.192 C263.016,961.608 259.848,960.888 257.688,960.888 L257.616,960.888 C252.432,960.888 247.824,964.488 247.824,969.672 C247.824,973.632 250.272,976.008 253.152,977.52 C255.168,978.6 256.248,979.032 258.264,979.968 C261.36,981.408 262.368,983.136 262.368,985.368 C262.368,988.536 259.992,991.128 255.456,991.128 C253.008,991.128 250.704,990.336 248.76,989.04 C248.04,988.536 247.896,988.68 247.536,988.896 C247.104,989.328 246.744,990.12 246.816,990.768 C247.824,992.208 250.776,993.864 255.168,993.864 Z M303.552,993.864 C304.848,993.864 306.576,993.288 306.432,991.056 L306.36,990.984 C305.856,991.2 305.424,991.272 304.992,991.272 C303.552,991.272 302.832,990.336 302.76,988.392 C302.688,984.288 302.904,975.792 302.904,972.552 C302.904,966.792 301.248,960.888 293.256,960.888 C288.576,960.888 284.4,963.84 282.6,965.784 C282.6,966.864 283.464,967.872 284.4,967.512 C286.992,965.424 289.656,963.912 292.752,963.912 C297.72,963.912 299.664,967.728 299.592,971.544 L299.52,975 C298.512,975.216 297.144,975.504 295.992,975.792 C293.328,976.512 281.88,978.6 281.88,986.664 C281.88,990.12 284.472,993.864 289.512,993.864 C293.616,993.864 297.072,991.704 299.448,988.68 C299.376,991.2 300.6,993.864 303.552,993.864 Z M290.952,990.984 C288.072,990.984 285.624,988.896 285.624,986.016 L285.624,985.944 C285.624,980.256 294.048,978.456 299.52,977.376 L299.448,983.856 C299.448,985.08 299.304,985.656 299.016,986.16 C297.72,988.104 295.2,990.984 290.952,990.984 Z M326.16,993.432 C326.664,993.432 326.952,993.36 327.24,992.496 C327.97728,988.53312 330.041664,978.848947 331.942077,969.256787 L332.178667,968.058667 C332.21792,967.8592 332.257075,967.659878 332.296119,967.460754 L332.528933,966.268803 C333.376883,961.910093 334.15776,957.69792 334.728,954.192 C336.312,958.32525 338.219297,963.249727 340.145736,968.260611 L340.671375,969.628828 C344.17575,978.7575 347.652,987.96 349.272,993 C349.632,993 350.496,992.856 350.928,992.64 C351.504,992.352 351.792,991.776 352.08,991.128 C353.206373,988.304136 354.409648,985.326467 355.63437,982.314376 L356.200947,980.922171 C360.364054,970.701118 364.675119,960.296136 366.984,954.336 L371.52,979.752 C372.528,985.296 373.032,987.96 374.04,992.28 C374.184,993.072 374.4,993.432 375.12,993.432 C375.984,993.432 376.992,993.144 377.856,992.784 C376.992,989.328 375.84,984 374.4,976.44 L369.144,949.368 C368.928,948.144 368.64,947.784 368.208,947.784 C367.488,947.784 366.552,948.072 365.976,948.36 L366.264,949.944 C363.548571,956.238857 358.505633,968.35249 353.492921,980.571918 L352.658154,982.60849 C352.38026,983.28702 352.102865,983.964898 351.826371,984.641143 L351.274706,985.991166 C351.183002,986.21571 351.091429,986.44 351,986.664 L339.84,958.656 C337.566857,953.04 336.349102,950.031429 335.610262,948.189105 L335.448,947.784 L335.448,947.784 C334.296,947.784 333,948.072 332.424,948.36 L333.072,950.232 C332.454857,953.073429 331.823939,956.041133 331.195234,959.037946 L330.943909,960.237993 L330.943909,960.237993 L330.693046,961.439763 C327.978704,974.463286 325.386,987.546857 324.216,992.784 C325.296,993.432 325.872,993.432 326.16,993.432 Z M397.512,993.864 C400.536,993.864 403.56,992.928 404.784,992.064 C405.864,991.344 406.152,990.408 406.368,989.256 L406.224,989.184 C404.928,989.832 401.328,990.84 398.304,990.84 C390.6,990.84 386.28,985.008 386.496,976.44 C386.777739,976.449391 387.059887,976.458102 387.342046,976.466168 L388.188163,976.488466 C394.105679,976.631501 399.853565,976.505739 401.76,976.44 C403.776,976.368 407.736,975.792 408.024,974.352 C408.168,973.704 408.168,972.696 408.168,972.192 C407.952,966.576 404.424,960.888 397.152,960.888 C388.152,960.888 382.968,968.592 382.968,978.096 C382.968,987.672 388.08,993.864 397.512,993.864 Z M394.685438,973.911281 L393.254785,973.911606 C391.914948,973.909847 390.503079,973.902036 389.069383,973.884899 L388.285504,973.874606 L388.285504,973.874606 L387.499106,973.862346 C387.236755,973.857918 386.974286,973.853143 386.712,973.848 C387.864,966.864 391.896,963.192 396.36,963.192 L396.432,963.192 C401.832,963.192 404.712,967.296 404.568,972.336 C404.568,973.272 403.776,973.776 402.552,973.848 C401.922,973.848 398.76075,973.90425 394.685438,973.911281 L394.685438,973.911281 Z M423.792,993.864 C425.664,993.864 428.328,993.144 429.552,992.208 C431.136,990.984 430.848,990.48 430.416,989.328 L430.272,989.256 C428.76,990.408 426.6,990.912 424.656,990.912 C422.208,990.912 419.328,989.976 418.968,984.936 C418.874264,983.561208 418.821206,981.16947 418.81471,978.178565 L418.814558,976.978557 C418.820809,973.565404 418.882978,969.508733 419.008623,965.345061 L419.04,964.344 L419.04,964.344 L419.415504,964.344062 L419.415504,964.344062 L420.448501,964.344909 C421.950333,964.346893 422.976105,964.351625 423.724284,964.354043 L424.028514,964.354923 C424.07658,964.355041 424.123374,964.355144 424.168968,964.355229 L424.663164,964.355301 C425.071894,964.354388 425.370513,964.350483 425.655291,964.341131 L425.80983,964.335474 C426.324243,964.314721 426.850759,964.274483 427.968,964.2 C429.12,964.128 430.56,963.984 431.136,961.752 L419.04,961.752 L419.04,961.752 C419.04,960.744 419.112,959.808 419.184,957.36 C418.536,957.648 417.888,958.08 417.24,958.8 C416.448,959.664 413.28,962.544 412.92,963.48 C412.92,964.2 413.64,964.416 415.728,964.416 L415.728,984.576 L415.728,984.576 C415.728,990.48 418.464,993.864 423.792,993.864 Z M455.688,993.864 C456.984,993.864 458.712,993.288 458.568,991.056 L458.496,990.984 C457.992,991.2 457.56,991.272 457.128,991.272 C455.688,991.272 454.968,990.336 454.896,988.392 C454.824,984.288 455.04,975.792 455.04,972.552 C455.04,966.792 453.384,960.888 445.392,960.888 C440.712,960.888 436.536,963.84 434.736,965.784 C434.736,966.864 435.6,967.872 436.536,967.512 C439.128,965.424 441.792,963.912 444.888,963.912 C449.856,963.912 451.8,967.728 451.728,971.544 L451.656,975 C450.648,975.216 449.28,975.504 448.128,975.792 C445.464,976.512 434.016,978.6 434.016,986.664 C434.016,990.12 436.608,993.864 441.648,993.864 C445.752,993.864 449.208,991.704 451.584,988.68 C451.512,991.2 452.736,993.864 455.688,993.864 Z M443.088,990.984 C440.208,990.984 437.76,988.896 437.76,986.016 L437.76,985.944 C437.76,980.256 446.184,978.456 451.656,977.376 L451.584,983.856 C451.584,985.08 451.44,985.656 451.152,986.16 C449.856,988.104 447.336,990.984 443.088,990.984 Z M479.016,993.864 C479.952,993.864 480.456,993.576 480.96,993.216 C481.32,992.928 481.824,992.208 482.184,991.416 C487.872,977.88 493.632,964.272 498.96,950.592 C499.536,949.08 499.392,948.648 498.528,948.216 C498.096,948 497.592,947.928 496.944,947.784 C491.904,961.104 485.928,975.432 480.6,988.752 C473.976,972.12 469.656,960.168 467.568,954.624 C465.264,948.648 465.12,947.784 464.184,947.784 C463.176,947.784 461.664,948.576 461.52,949.152 C467.64,963.552 473.472,979.896 479.016,993.864 Z M517.392,993.864 C520.416,993.864 523.44,992.928 524.664,992.064 C525.744,991.344 526.032,990.408 526.248,989.256 L526.104,989.184 C524.808,989.832 521.208,990.84 518.184,990.84 C510.48,990.84 506.16,985.008 506.376,976.44 C506.657739,976.449391 506.939887,976.458102 507.222046,976.466168 L508.068163,976.488466 C513.985679,976.631501 519.733565,976.505739 521.64,976.44 C523.656,976.368 527.616,975.792 527.904,974.352 C528.048,973.704 528.048,972.696 528.048,972.192 C527.832,966.576 524.304,960.888 517.032,960.888 C508.032,960.888 502.848,968.592 502.848,978.096 C502.848,987.672 507.96,993.864 517.392,993.864 Z M514.565438,973.911281 L513.134785,973.911606 C511.794948,973.909847 510.383079,973.902036 508.949383,973.884899 L508.165504,973.874606 L508.165504,973.874606 L507.379106,973.862346 C507.116755,973.857918 506.854286,973.853143 506.592,973.848 C507.744,966.864 511.776,963.192 516.24,963.192 L516.312,963.192 C521.712,963.192 524.592,967.296 524.448,972.336 C524.448,973.272 523.656,973.776 522.432,973.848 C521.802,973.848 518.64075,973.90425 514.565438,973.911281 L514.565438,973.911281 Z M537.408,993.216 C538.128,993.144 538.344,992.712 538.344,991.704 L538.344,974.208 L538.344,974.208 C538.344,972.624 538.704,971.328 539.352,969.96 C541.152,965.856 543.816,964.056 545.832,964.056 C546.48,964.056 547.56,964.272 548.28,964.704 C549.072,964.344 549.792,963.192 549.792,962.4 C549.792,962.256 549.648,961.896 549.288,961.68 C548.712,961.248 547.632,960.888 546.48,960.888 C543.744,960.888 540.432,963.336 538.128,968.16 C538.128,963.48 537.12,960.888 535.68,960.888 C535.176,960.888 533.664,962.04 533.376,962.472 L533.376,962.688 C534.672,963.408 535.032,964.776 535.032,968.088 L535.032,979.968 L535.031998,980.442948 L535.031998,980.442948 L535.031115,983.514925 C535.02647,989.222592 534.99744,992.34336 534.816,993.432 C535.176,993.432 536.4,993.36 537.408,993.216 Z M560.448,993.864 C565.344,993.864 571.032,991.056 571.032,984.504 C571.032,982.416 570.168,979.968 567,978.024 C564.696,976.584 563.04,976.008 560.232,974.568 C558.36,973.632 556.344,972.048 556.344,969.096 C556.344,965.496 559.224,963.552 562.608,963.552 C564.336,963.552 566.352,964.128 568.152,965.136 C568.944,964.992 569.664,963.768 569.52,963.192 C568.296,961.608 565.128,960.888 562.968,960.888 L562.896,960.888 C557.712,960.888 553.104,964.488 553.104,969.672 C553.104,973.632 555.552,976.008 558.432,977.52 C560.448,978.6 561.528,979.032 563.544,979.968 C566.64,981.408 567.648,983.136 567.648,985.368 C567.648,988.536 565.272,991.128 560.736,991.128 C558.288,991.128 555.984,990.336 554.04,989.04 C553.32,988.536 553.176,988.68 552.816,988.896 C552.384,989.328 552.024,990.12 552.096,990.768 C553.104,992.208 556.056,993.864 560.448,993.864 Z M589.032,993.864 C592.056,993.864 595.08,992.928 596.304,992.064 C597.384,991.344 597.672,990.408 597.888,989.256 L597.744,989.184 C596.448,989.832 592.848,990.84 589.824,990.84 C582.12,990.84 577.8,985.008 578.016,976.44 C578.297739,976.449391 578.579887,976.458102 578.862046,976.466168 L579.708163,976.488466 C585.625679,976.631501 591.373565,976.505739 593.28,976.44 C595.296,976.368 599.256,975.792 599.544,974.352 C599.688,973.704 599.688,972.696 599.688,972.192 C599.472,966.576 595.944,960.888 588.672,960.888 C579.672,960.888 574.488,968.592 574.488,978.096 C574.488,987.672 579.6,993.864 589.032,993.864 Z M586.205438,973.911281 L584.774785,973.911606 C583.434948,973.909847 582.023079,973.902036 580.589383,973.884899 L579.805504,973.874606 L579.805504,973.874606 L579.019106,973.862346 C578.756755,973.857918 578.494286,973.853143 578.232,973.848 C579.384,966.864 583.416,963.192 587.88,963.192 L587.952,963.192 C593.352,963.192 596.232,967.296 596.088,972.336 C596.088,973.272 595.296,973.776 594.072,973.848 C593.442,973.848 590.28075,973.90425 586.205438,973.911281 L586.205438,973.911281 Z M611.28,980.04 C611.712,980.04 612.504,979.824 613.008,979.248 C612.432,978.24 612.144,976.944 612.144,975.72 C612.144,974.208 612.936,971.688 615.528,968.16 C617.976,964.848 620.352,961.464 620.352,957.504 C620.352,952.824 616.896,949.296 612.216,949.296 L612.144,949.296 C609.768,949.296 606.96,950.232 604.296,952.68 C604.008,953.688 604.512,954.408 605.232,954.696 L605.376,954.696 C606.816,953.328 609.192,952.32 611.424,952.32 C614.952,952.32 616.68,954.912 616.68,958.152 C616.68,961.536 613.728,965.208 612.432,967.224 C610.2,970.752 609.192,973.2 609.192,976.224 C609.192,979.104 610.848,980.04 611.28,980.04 Z M611.784,993.792 C613.368,993.792 614.52,992.568 614.52,990.912 C614.52,989.688 613.584,988.248 612.144,988.248 L612.072,988.248 C610.272,988.248 609.192,989.544 609.192,991.056 C609.192,992.856 610.632,993.792 611.784,993.792 Z" id="WhatisaMetaVerse?"></path>
        </g>
    </g>
</svg>